<?xml version="1.0" encoding="UTF-8"?>
<svg xmlns="http://www.w3.org/2000/svg" xmlns:xlink="http://www.w3.org/1999/xlink" width="939px" height="59px" viewBox="0 0 939 59" version="1.1">
    <!-- Generator: Sketch 50.2 (55047) - http://www.bohemiancoding.com/sketch -->
    <title>RHClogohoriz</title>
    <desc>Created with Sketch.</desc>
    <defs/>
    <g id="Symbols" stroke="none" stroke-width="1" fill="none" fill-rule="evenodd">
        <g id="logo-white" transform="translate(0.000000, -19.000000)">
            <g id="RHClogohoriz" transform="translate(0.000000, 19.000000)">
                <path d="M529.028012,57.1967656 L529.028012,10.2241094 L535.693051,10.2241094 L535.693051,30.0287969 L558.036801,30.0287969 L558.036801,10.2241094 L564.70184,10.2241094 L564.70184,57.1967656 L558.036801,57.1967656 L558.036801,35.011707 L535.693051,35.011707 L535.693051,57.1967656 L529.028012,57.1967656 Z M576.794125,57.1967656 L576.794125,10.2241094 L603.041684,10.2241094 L603.041684,15.2070195 L583.459164,15.2070195 L583.459164,30.2827031 L599.867855,30.2827031 L599.867855,35.2021367 L583.459164,35.2021367 L583.459164,52.2138555 L604.40643,52.2138555 L604.40643,57.1967656 L576.794125,57.1967656 Z M635.827328,39.2328984 L627.829281,18.983875 L619.799496,39.2328984 L635.827328,39.2328984 Z M642.873227,57.1967656 L637.763363,44.1840703 L617.863461,44.1840703 L612.690121,57.1967656 L606.501156,57.1967656 L625.131527,10.2241094 L631.73309,10.2241094 L650.077816,57.1967656 L642.873227,57.1967656 Z M656.869809,57.1967656 L656.869809,10.2241094 L663.534848,10.2241094 L663.534848,52.2138555 L684.672543,52.2138555 L684.672543,57.1967656 L656.869809,57.1967656 Z M702.699887,57.1967656 L702.699887,15.2070195 L686.037289,15.2070195 L686.037289,10.2241094 L726.027523,10.2241094 L726.027523,15.2070195 L709.364926,15.2070195 L709.364926,57.1967656 L702.699887,57.1967656 Z M732.629086,57.1967656 L732.629086,10.2241094 L739.294125,10.2241094 L739.294125,30.0287969 L761.637875,30.0287969 L761.637875,10.2241094 L768.302914,10.2241094 L768.302914,57.1967656 L761.637875,57.1967656 L761.637875,35.011707 L739.294125,35.011707 L739.294125,57.1967656 L732.629086,57.1967656 Z M800.51727,58.371082 C793.217428,58.371082 787.57865,56.2287695 783.600766,51.9440801 C779.622881,47.6593907 777.633969,41.5921499 777.633969,33.7421758 C777.633969,25.9133606 779.659909,19.8408302 783.71185,15.5244023 C787.76379,11.2079745 793.471334,9.04979297 800.834652,9.04979297 C805.045285,9.04979297 809.975249,9.73744885 815.624691,11.1127812 L815.624691,17.3652227 C809.192368,15.1435319 804.230666,14.0327031 800.739438,14.0327031 C795.640128,14.0327031 791.694041,15.7571325 788.901059,19.206043 C786.108076,22.6549534 784.711605,27.5214412 784.711605,33.8056523 C784.711605,39.793638 786.20329,44.517305 789.186703,47.9767949 C792.170116,51.4362849 796.243155,53.1660039 801.405941,53.1660039 C805.849323,53.1660039 810.610018,51.8012715 815.688168,49.0717656 L815.688168,54.7846562 C811.054356,57.1756187 805.99744,58.371082 800.51727,58.371082 Z M849.172055,39.2328984 L841.174008,18.983875 L833.144223,39.2328984 L849.172055,39.2328984 Z M856.217953,57.1967656 L851.10809,44.1840703 L831.208188,44.1840703 L826.034848,57.1967656 L819.845883,57.1967656 L838.476254,10.2241094 L845.077816,10.2241094 L863.422543,57.1967656 L856.217953,57.1967656 Z M870.214535,57.1967656 L870.214535,10.2241094 L884.433285,10.2241094 C888.940144,10.2241094 892.394292,11.2185656 894.795834,13.2075078 C897.197376,15.19645 898.398129,18.0846048 898.398129,21.8720586 C898.398129,28.1351107 895.234912,32.5784257 888.908383,35.2021367 L904.587094,57.1967656 L896.398617,57.1967656 L883.036801,37.3286016 L876.816098,37.3286016 L876.816098,57.1967656 L870.214535,57.1967656 Z M876.816098,32.3456914 L878.974301,32.3456914 C887.353249,32.3456914 891.54266,29.0555225 891.54266,22.4750859 C891.54266,17.6296841 888.030325,15.2070195 881.005551,15.2070195 L876.816098,15.2070195 L876.816098,32.3456914 Z M911.315609,57.1967656 L911.315609,10.2241094 L937.563168,10.2241094 L937.563168,15.2070195 L917.980648,15.2070195 L917.980648,30.2827031 L934.38934,30.2827031 L934.38934,35.2021367 L917.980648,35.2021367 L917.980648,52.2138555 L938.927914,52.2138555 L938.927914,57.1967656 L911.315609,57.1967656 Z" id="HEALTHCARE" fill="#45545F"/>
                <path d="M58.06,44.391 C58.57,44.711 59.939,44.711 59.939,44.711 C69.155,45.365 82.24,41.896 82.24,41.896 C82.24,41.896 83.574,41.598 85.007,41.605 C85.904,41.621 87.483,41.766 87.768,42.094 C88.497,42.939 87.635,43.562 86.317,44.33 C84.993,45.101 74.303,49.656 69.573,51.361 C61.789,54.158 57.928,55.197 53.542,54.892 C43.553,54.186 31.745,44.543 16.956,44.479 C12.706,44.459 11.195,44.941 10.195,45.018 C8.778,45.117 8.227,44.779 8.093,44.297 C7.487,42.225 25.251,34.845 34.665,34.236 C46.314,33.484 49.255,35.49 55.594,38.01 C62.624,40.814 63.065,40.475 63.71,40.933 C64.848,41.75 63.473,42.572 60.345,43.355 C59.298,43.619 57.979,44.342 58.06,44.391" id="Fill-1" fill="#00A0AF"/>
                <path d="M58.06,44.391 C58.57,44.711 59.939,44.711 59.939,44.711 C69.155,45.365 82.24,41.896 82.24,41.896 C82.24,41.896 83.574,41.598 85.007,41.605 C85.904,41.621 87.483,41.766 87.768,42.094 C88.497,42.939 87.635,43.562 86.317,44.33 C84.993,45.101 74.303,49.656 69.573,51.361 C61.789,54.158 57.928,55.197 53.542,54.892 C43.553,54.186 31.745,44.543 16.956,44.479 C12.706,44.459 11.195,44.941 10.195,45.018 C8.778,45.117 8.227,44.779 8.093,44.297 C7.487,42.225 25.251,34.845 34.665,34.236 C46.314,33.484 49.255,35.49 55.594,38.01 C62.624,40.814 63.065,40.475 63.71,40.933 C64.848,41.75 63.473,42.572 60.345,43.355 C59.298,43.619 57.979,44.342 58.06,44.391 Z" id="Stroke-2"/>
                <path d="M116.177,25.316 C117.709,24.97 118.814,24.828 119.035,25.859 C119.124,26.268 118.302,27.383 117.709,27.972 C116.756,28.923 115.275,29.681 115.275,29.681 L115.222,29.761 C108.424,33.884 94.387,39.727 84.951,39.764 C72.046,39.818 66.853,37.01 61.896,35.912 C57.171,34.872 54.218,34.796 53.937,34.296 C53.664,33.784 54.503,31.985 59.895,31.584 C65.287,31.179 68.722,32.054 70.673,32.107 C75.26,32.244 77.376,31.015 77.376,31.015 C77.376,31.015 69.113,26.44 59.895,25.792 C50.674,25.146 37.015,30.064 37.015,30.064 C37.015,30.064 35.389,30.544 33.953,30.541 C33.055,30.541 31.554,30.349 31.255,30.02 C30.522,29.189 31.379,28.561 32.692,27.774 C34.003,26.994 44.644,22.355 49.361,20.613 L49.367,20.554 C49.937,20.31 50.453,20.094 50.893,19.902 C55.201,18.031 60.938,15.304 67.479,15.22 C78.006,15.072 96.296,24.828 111.064,25.48 C113.296,25.579 114.93,25.412 116.147,25.281 L116.177,25.316" id="Fill-3" fill="#00A0AF"/>
                <path d="M116.177,25.316 C117.709,24.97 118.814,24.828 119.035,25.859 C119.124,26.268 118.302,27.383 117.709,27.972 C116.756,28.923 115.275,29.681 115.275,29.681 L115.222,29.761 C108.424,33.884 94.387,39.727 84.951,39.764 C72.046,39.818 66.853,37.01 61.896,35.912 C57.171,34.872 54.218,34.796 53.937,34.296 C53.664,33.784 54.503,31.985 59.895,31.584 C65.287,31.179 68.722,32.054 70.673,32.107 C75.26,32.244 77.376,31.015 77.376,31.015 C77.376,31.015 69.113,26.44 59.895,25.792 C50.674,25.146 37.015,30.064 37.015,30.064 C37.015,30.064 35.389,30.544 33.953,30.541 C33.055,30.541 31.554,30.349 31.255,30.02 C30.522,29.189 31.379,28.561 32.692,27.774 C34.003,26.994 44.644,22.355 49.361,20.613 L49.367,20.554 C49.937,20.31 50.453,20.094 50.893,19.902 C55.201,18.031 60.938,15.304 67.479,15.22 C78.006,15.072 96.296,24.828 111.064,25.48 C113.296,25.579 114.93,25.412 116.147,25.281 L116.177,25.316 Z" id="Stroke-4"/>
                <path d="M6.916,20.843 C2.18,19.697 0.065,18.783 0.145,17.746 C0.981,16.062 2.934,17.797 7.704,16.75 C11.605,15.898 15.173,14.607 19.739,12.951 C24.971,11.048 37.458,6.345 41.958,4.802 C43.351,4.33 48.948,3.068 52.719,3.651 C58.241,4.514 72.637,8.771 73.575,9.226 C74.417,9.626 75.089,9.853 74.917,10.648 C74.664,11.825 72.99,11.542 72.99,11.542 C65.089,9.669 59.507,11.079 54.034,13.204 C50.739,14.476 36.598,20.648 27.331,21.885 C20.045,22.856 12.927,22.306 6.916,20.843" id="Fill-5" fill="#00A0AF"/>
                <path d="M6.916,20.843 C2.18,19.697 0.065,18.783 0.145,17.746 C0.981,16.062 2.934,17.797 7.704,16.75 C11.605,15.898 15.173,14.607 19.739,12.951 C24.971,11.048 37.458,6.345 41.958,4.802 C43.351,4.33 48.948,3.068 52.719,3.651 C58.241,4.514 72.637,8.771 73.575,9.226 C74.417,9.626 75.089,9.853 74.917,10.648 C74.664,11.825 72.99,11.542 72.99,11.542 C65.089,9.669 59.507,11.079 54.034,13.204 C50.739,14.476 36.598,20.648 27.331,21.885 C20.045,22.856 12.927,22.306 6.916,20.843 Z" id="Stroke-6"/>
                <path d="M152.064,25.425 C152.064,28.456 152.315,28.713 157.424,28.713 C160.545,28.713 162.357,27.933 164.004,26.289 C165.479,24.817 167.118,22.048 167.118,16.94 C167.118,9.152 162.529,4.13 155.785,4.13 C152.231,4.13 152.064,4.39 152.064,8.543 L152.064,25.425 Z M140.203,14.427 C140.203,5.772 140.03,4.82 136.385,4.302 L134.051,3.953 C133.192,3.519 133.192,1.36 134.231,0.922 C140.717,0.496 147.474,0.149 155.695,0.149 C163.053,0.149 169.372,1.276 172.668,3.263 C177.685,6.209 180.285,10.538 180.285,16.076 C180.285,23.779 175.085,27.07 171.104,29.059 C170.233,29.49 170.233,30.01 170.672,30.966 C176.38,42.567 179.935,49.055 184.091,52.609 C186.339,54.423 188.587,54.943 189.889,55.033 C190.672,55.46 190.672,56.759 190.233,57.277 C188.853,57.886 186.078,58.057 183.388,58.057 C175.429,58.057 170.412,55.2 166.607,48.968 C163.822,44.377 161.845,40.139 159.848,35.55 C158.807,33.216 157.424,32.517 155.261,32.517 C152.231,32.517 152.064,32.698 152.064,34.423 L152.064,45.078 C152.064,53.041 152.583,53.645 156.477,54.335 L158.807,54.772 C159.418,55.2 159.418,57.277 158.807,57.801 C154.222,57.63 150.237,57.538 146.091,57.538 C141.76,57.538 137.953,57.63 133.446,57.801 C132.754,57.277 132.754,55.2 133.446,54.772 L135.78,54.335 C139.685,53.645 140.203,53.041 140.203,45.078 L140.203,14.427 Z" id="Fill-8" fill="#00446A"/>
                <path d="M152.064,25.425 C152.064,28.456 152.315,28.713 157.424,28.713 C160.545,28.713 162.357,27.933 164.004,26.289 C165.479,24.817 167.118,22.048 167.118,16.94 C167.118,9.152 162.529,4.13 155.785,4.13 C152.231,4.13 152.064,4.39 152.064,8.543 L152.064,25.425 Z M140.203,14.427 C140.203,5.772 140.03,4.82 136.385,4.302 L134.051,3.953 C133.192,3.519 133.192,1.36 134.231,0.922 C140.717,0.496 147.474,0.149 155.695,0.149 C163.053,0.149 169.372,1.276 172.668,3.263 C177.685,6.209 180.285,10.538 180.285,16.076 C180.285,23.779 175.085,27.07 171.104,29.059 C170.233,29.49 170.233,30.01 170.672,30.966 C176.38,42.567 179.935,49.055 184.091,52.609 C186.339,54.423 188.587,54.943 189.889,55.033 C190.672,55.46 190.672,56.759 190.233,57.277 C188.853,57.886 186.078,58.057 183.388,58.057 C175.429,58.057 170.412,55.2 166.607,48.968 C163.822,44.377 161.845,40.139 159.848,35.55 C158.807,33.216 157.424,32.517 155.261,32.517 C152.231,32.517 152.064,32.698 152.064,34.423 L152.064,45.078 C152.064,53.041 152.583,53.645 156.477,54.335 L158.807,54.772 C159.418,55.2 159.418,57.277 158.807,57.801 C154.222,57.63 150.237,57.538 146.091,57.538 C141.76,57.538 137.953,57.63 133.446,57.801 C132.754,57.277 132.754,55.2 133.446,54.772 L135.78,54.335 C139.685,53.645 140.203,53.041 140.203,45.078 L140.203,14.427 Z" id="Stroke-9"/>
                <path d="M202.978,47.199 C202.978,53.856 203.405,54.352 206.659,54.921 L208.644,55.274 C209.209,55.697 209.139,57.328 208.571,57.75 C204.747,57.611 201.281,57.538 197.951,57.538 C194.548,57.538 191.009,57.611 187.182,57.75 C186.613,57.328 186.613,55.697 187.182,55.274 L189.169,54.921 C192.419,54.352 192.855,53.856 192.855,47.199 L192.855,21.126 C192.855,14.471 192.419,13.977 189.169,13.405 L187.182,13.052 C186.613,12.629 186.613,11.003 187.182,10.574 C191.009,10.714 194.548,10.787 197.951,10.787 C201.281,10.787 204.82,10.714 208.644,10.574 C209.209,11.003 209.209,12.629 208.644,13.052 L206.659,13.405 C203.405,13.977 202.978,14.471 202.978,21.126 L202.978,47.199" id="Fill-11" fill="#00446A"/>
                <path d="M202.978,47.199 C202.978,53.856 203.405,54.352 206.659,54.921 L208.644,55.274 C209.209,55.697 209.139,57.328 208.571,57.75 C204.747,57.611 201.281,57.538 197.951,57.538 C194.548,57.538 191.009,57.611 187.182,57.75 C186.613,57.328 186.613,55.697 187.182,55.274 L189.169,54.921 C192.419,54.352 192.855,53.856 192.855,47.199 L192.855,21.126 C192.855,14.471 192.419,13.977 189.169,13.405 L187.182,13.052 C186.613,12.629 186.613,11.003 187.182,10.574 C191.009,10.714 194.548,10.787 197.951,10.787 C201.281,10.787 204.82,10.714 208.644,10.574 C209.209,11.003 209.209,12.629 208.644,13.052 L206.659,13.405 C203.405,13.977 202.978,14.471 202.978,21.126 L202.978,47.199 Z" id="Stroke-12"/>
                <path d="M244.902,39.972 C241.293,48.544 239.454,54.141 237.816,58.111 C237.251,58.458 236.402,58.673 235.341,58.673 C234.49,58.673 233.849,58.458 233.426,58.111 C232.647,56.193 231.442,52.438 230.45,50.035 L218.975,21.198 C216.28,14.402 215.93,14.259 213.659,13.691 L210.828,12.984 C210.263,12.204 210.472,10.928 211.116,10.574 C214.73,10.646 217.064,10.786 220.744,10.786 C224.012,10.786 227.049,10.714 231.371,10.574 C231.937,11.003 231.863,12.346 231.442,12.984 L229.318,13.403 C228.043,13.691 227.547,14.119 227.547,14.753 C227.547,15.318 228.676,18.299 230.382,22.548 L236.611,38.481 C237.603,41.103 238.461,43.232 238.954,44.435 C239.52,43.232 240.655,40.825 241.498,38.7 L244.2,32.035 C245.966,27.572 249.01,19.644 249.864,17.233 C250.358,15.886 250.574,15.109 250.574,14.68 C250.574,14.183 249.999,13.904 248.298,13.479 L246.037,12.984 C245.468,12.415 245.468,10.928 246.32,10.574 C249.653,10.714 252.342,10.786 255.036,10.786 C257.441,10.786 259.568,10.714 261.62,10.574 C262.179,10.859 262.261,12.56 261.763,12.984 L259.917,13.338 C257.933,13.691 256.734,14.183 255.81,15.673 C254.257,18.007 252.48,21.978 250.073,27.718 L244.902,39.972" id="Fill-13" fill="#00446A"/>
                <path d="M244.902,39.972 C241.293,48.544 239.454,54.141 237.816,58.111 C237.251,58.458 236.402,58.673 235.341,58.673 C234.49,58.673 233.849,58.458 233.426,58.111 C232.647,56.193 231.442,52.438 230.45,50.035 L218.975,21.198 C216.28,14.402 215.93,14.259 213.659,13.691 L210.828,12.984 C210.263,12.204 210.472,10.928 211.116,10.574 C214.73,10.646 217.064,10.786 220.744,10.786 C224.012,10.786 227.049,10.714 231.371,10.574 C231.937,11.003 231.863,12.346 231.442,12.984 L229.318,13.403 C228.043,13.691 227.547,14.119 227.547,14.753 C227.547,15.318 228.676,18.299 230.382,22.548 L236.611,38.481 C237.603,41.103 238.461,43.232 238.954,44.435 C239.52,43.232 240.655,40.825 241.498,38.7 L244.2,32.035 C245.966,27.572 249.01,19.644 249.864,17.233 C250.358,15.886 250.574,15.109 250.574,14.68 C250.574,14.183 249.999,13.904 248.298,13.479 L246.037,12.984 C245.468,12.415 245.468,10.928 246.32,10.574 C249.653,10.714 252.342,10.786 255.036,10.786 C257.441,10.786 259.568,10.714 261.62,10.574 C262.179,10.859 262.261,12.56 261.763,12.984 L259.917,13.338 C257.933,13.691 256.734,14.183 255.81,15.673 C254.257,18.007 252.48,21.978 250.073,27.718 L244.902,39.972 Z" id="Stroke-14"/>
                <path d="M279.316,29.204 C279.316,31.187 279.388,31.329 281.3,31.329 L286.185,31.329 C289.866,31.329 290.718,30.832 291.427,27.436 L291.784,25.66 C292.279,25.095 294.048,25.095 294.398,25.736 C294.263,28 294.196,30.55 294.196,33.24 C294.196,35.935 294.263,38.484 294.398,40.751 C294.048,41.386 292.279,41.462 291.784,40.825 L291.427,39.056 C290.718,35.652 289.866,35.081 286.185,35.081 L281.3,35.081 C279.388,35.081 279.316,35.155 279.316,37.28 L279.316,45.708 C279.316,48.964 279.597,51.239 280.448,52.438 C281.366,53.713 282.718,54.284 287.89,54.284 C294.048,54.284 296.458,54.068 300.353,46.064 C300.919,45.284 302.689,45.568 302.976,46.416 C302.689,50.104 300.987,55.843 299.993,57.75 C296.249,57.611 289.443,57.538 283.636,57.538 L274.427,57.538 C271.025,57.538 267.552,57.611 262.245,57.75 C261.677,57.328 261.677,55.625 262.245,55.274 L265.575,54.775 C268.757,54.284 269.187,53.856 269.187,47.335 L269.187,20.917 C269.187,14.471 268.757,14.043 265.575,13.405 L263.798,13.052 C263.163,12.629 263.232,11.005 263.941,10.574 C267.271,10.714 270.739,10.787 274.142,10.787 L289.165,10.787 C293.696,10.787 297.726,10.714 298.652,10.574 C298.726,11.703 299.222,16.805 299.575,21.556 C299.29,22.335 297.667,22.473 296.95,21.846 C296.173,19.358 295.181,17.234 294.263,16.24 C292.915,14.899 290.792,14.043 287.314,14.043 L281.652,14.043 C279.316,14.043 279.316,14.183 279.316,16.805 L279.316,29.204" id="Fill-15" fill="#00446A"/>
                <path d="M279.316,29.204 C279.316,31.187 279.388,31.329 281.3,31.329 L286.185,31.329 C289.866,31.329 290.718,30.832 291.427,27.436 L291.784,25.66 C292.279,25.095 294.048,25.095 294.398,25.736 C294.263,28 294.196,30.55 294.196,33.24 C294.196,35.935 294.263,38.484 294.398,40.751 C294.048,41.386 292.279,41.462 291.784,40.825 L291.427,39.056 C290.718,35.652 289.866,35.081 286.185,35.081 L281.3,35.081 C279.388,35.081 279.316,35.155 279.316,37.28 L279.316,45.708 C279.316,48.964 279.597,51.239 280.448,52.438 C281.366,53.713 282.718,54.284 287.89,54.284 C294.048,54.284 296.458,54.068 300.353,46.064 C300.919,45.284 302.689,45.568 302.976,46.416 C302.689,50.104 300.987,55.843 299.993,57.75 C296.249,57.611 289.443,57.538 283.636,57.538 L274.427,57.538 C271.025,57.538 267.552,57.611 262.245,57.75 C261.677,57.328 261.677,55.625 262.245,55.274 L265.575,54.775 C268.757,54.284 269.187,53.856 269.187,47.335 L269.187,20.917 C269.187,14.471 268.757,14.043 265.575,13.405 L263.798,13.052 C263.163,12.629 263.232,11.005 263.941,10.574 C267.271,10.714 270.739,10.787 274.142,10.787 L289.165,10.787 C293.696,10.787 297.726,10.714 298.652,10.574 C298.726,11.703 299.222,16.805 299.575,21.556 C299.29,22.335 297.667,22.473 296.95,21.846 C296.173,19.358 295.181,17.234 294.263,16.24 C292.915,14.899 290.792,14.043 287.314,14.043 L281.652,14.043 C279.316,14.043 279.316,14.183 279.316,16.805 L279.316,29.204 Z" id="Stroke-16"/>
                <path d="M320.884,31.263 C320.884,33.736 321.095,33.949 325.273,33.949 C327.825,33.949 329.316,33.315 330.657,31.97 C331.862,30.767 333.206,28.496 333.206,24.32 C333.206,17.94 329.452,13.83 323.931,13.83 C321.023,13.83 320.884,14.046 320.884,17.447 L320.884,31.263 Z M311.179,22.259 C311.179,15.179 311.032,14.4 308.062,13.976 L306.152,13.688 C305.439,13.338 305.439,11.566 306.286,11.212 C311.599,10.862 317.128,10.57 323.855,10.57 C329.878,10.57 335.05,11.501 337.739,13.127 C341.849,15.537 343.976,19.073 343.976,23.605 C343.976,29.91 339.722,32.605 336.47,34.231 C335.759,34.587 335.759,35.015 336.116,35.794 C340.788,45.283 343.696,50.598 347.095,53.501 C348.931,54.988 350.782,55.412 351.841,55.485 C352.476,55.845 352.476,56.9 352.122,57.329 C350.991,57.824 348.726,57.968 346.521,57.968 C340.005,57.968 335.896,55.622 332.78,50.529 C330.519,46.773 328.884,43.302 327.257,39.542 C326.407,37.633 325.273,37.066 323.505,37.066 C321.023,37.066 320.884,37.208 320.884,38.626 L320.884,47.338 C320.884,53.853 321.31,54.35 324.497,54.919 L326.407,55.273 C326.907,55.622 326.907,57.329 326.407,57.751 C322.652,57.61 319.392,57.537 315.995,57.537 C312.458,57.537 309.335,57.61 305.659,57.751 C305.085,57.329 305.085,55.622 305.659,55.273 L307.57,54.919 C310.749,54.35 311.179,53.853 311.179,47.338 L311.179,22.259 Z" id="Fill-17" fill="#00446A"/>
                <path d="M320.884,31.263 C320.884,33.736 321.095,33.949 325.273,33.949 C327.825,33.949 329.316,33.315 330.657,31.97 C331.862,30.767 333.206,28.496 333.206,24.32 C333.206,17.94 329.452,13.83 323.931,13.83 C321.023,13.83 320.884,14.046 320.884,17.447 L320.884,31.263 Z M311.179,22.259 C311.179,15.179 311.032,14.4 308.062,13.976 L306.152,13.688 C305.439,13.338 305.439,11.566 306.286,11.212 C311.599,10.862 317.128,10.57 323.855,10.57 C329.878,10.57 335.05,11.501 337.739,13.127 C341.849,15.537 343.976,19.073 343.976,23.605 C343.976,29.91 339.722,32.605 336.47,34.231 C335.759,34.587 335.759,35.015 336.116,35.794 C340.788,45.283 343.696,50.598 347.095,53.501 C348.931,54.988 350.782,55.412 351.841,55.485 C352.476,55.845 352.476,56.9 352.122,57.329 C350.991,57.824 348.726,57.968 346.521,57.968 C340.005,57.968 335.896,55.622 332.78,50.529 C330.519,46.773 328.884,43.302 327.257,39.542 C326.407,37.633 325.273,37.066 323.505,37.066 C321.023,37.066 320.884,37.208 320.884,38.626 L320.884,47.338 C320.884,53.853 321.31,54.35 324.497,54.919 L326.407,55.273 C326.907,55.622 326.907,57.329 326.407,57.751 C322.652,57.61 319.392,57.537 315.995,57.537 C312.458,57.537 309.335,57.61 305.659,57.751 C305.085,57.329 305.085,55.622 305.659,55.273 L307.57,54.919 C310.749,54.35 311.179,53.853 311.179,47.338 L311.179,22.259 Z" id="Stroke-18"/>
                <path d="M366.777,58.673 C360.261,58.673 356.214,56.833 354.73,55.98 C353.386,54.423 352.46,49.318 352.46,44.507 C352.962,43.586 354.587,43.511 355.155,44.291 C356.573,48.898 361.32,55.414 367.339,55.414 C372.579,55.414 374.989,51.804 374.989,48.261 C374.989,42.518 369.605,39.119 365.349,36.997 C360.261,34.445 354.655,30.197 354.655,23.186 C354.587,15.179 360.82,9.651 371.085,9.651 C373.433,9.651 376.335,9.939 379.165,10.786 C380.087,11.069 380.724,11.214 381.575,11.357 C382.146,12.913 382.851,16.739 382.851,21.483 C382.499,22.335 380.724,22.406 380.087,21.697 C378.88,18.08 375.837,12.913 370.737,12.913 C366.066,12.913 363.513,15.955 363.513,19.498 C363.513,22.755 366.417,25.736 369.958,27.572 L374.634,30.048 C379.023,32.396 384.624,36.503 384.624,44.291 C384.624,53.005 377.466,58.673 366.777,58.673" id="Fill-19" fill="#00446A"/>
                <path d="M366.777,58.673 C360.261,58.673 356.214,56.833 354.73,55.98 C353.386,54.423 352.46,49.318 352.46,44.507 C352.962,43.586 354.587,43.511 355.155,44.291 C356.573,48.898 361.32,55.414 367.339,55.414 C372.579,55.414 374.989,51.804 374.989,48.261 C374.989,42.518 369.605,39.119 365.349,36.997 C360.261,34.445 354.655,30.197 354.655,23.186 C354.587,15.179 360.82,9.651 371.085,9.651 C373.433,9.651 376.335,9.939 379.165,10.786 C380.087,11.069 380.724,11.214 381.575,11.357 C382.146,12.913 382.851,16.739 382.851,21.483 C382.499,22.335 380.724,22.406 380.087,21.697 C378.88,18.08 375.837,12.913 370.737,12.913 C366.066,12.913 363.513,15.955 363.513,19.498 C363.513,22.755 366.417,25.736 369.958,27.572 L374.634,30.048 C379.023,32.396 384.624,36.503 384.624,44.291 C384.624,53.005 377.466,58.673 366.777,58.673 Z" id="Stroke-20"/>
                <path d="M404.165,47.199 C404.165,53.856 404.591,54.352 407.843,54.921 L409.831,55.274 C410.398,55.697 410.327,57.328 409.763,57.75 C405.935,57.611 402.464,57.538 399.132,57.538 C395.732,57.538 392.191,57.611 388.366,57.75 C387.798,57.328 387.798,55.697 388.366,55.274 L390.343,54.921 C393.607,54.352 394.034,53.856 394.034,47.199 L394.034,21.126 C394.034,14.471 393.607,13.977 390.343,13.405 L388.366,13.052 C387.798,12.629 387.798,11.003 388.366,10.574 C392.191,10.714 395.732,10.787 399.132,10.787 C402.464,10.787 406.011,10.714 409.831,10.574 C410.398,11.003 410.398,12.629 409.831,13.052 L407.843,13.405 C404.591,13.977 404.165,14.471 404.165,21.126 L404.165,47.199" id="Fill-21" fill="#00446A"/>
                <path d="M404.165,47.199 C404.165,53.856 404.591,54.352 407.843,54.921 L409.831,55.274 C410.398,55.697 410.327,57.328 409.763,57.75 C405.935,57.611 402.464,57.538 399.132,57.538 C395.732,57.538 392.191,57.611 388.366,57.75 C387.798,57.328 387.798,55.697 388.366,55.274 L390.343,54.921 C393.607,54.352 394.034,53.856 394.034,47.199 L394.034,21.126 C394.034,14.471 393.607,13.977 390.343,13.405 L388.366,13.052 C387.798,12.629 387.798,11.003 388.366,10.574 C392.191,10.714 395.732,10.787 399.132,10.787 C402.464,10.787 406.011,10.714 409.831,10.574 C410.398,11.003 410.398,12.629 409.831,13.052 L407.843,13.405 C404.591,13.977 404.165,14.471 404.165,21.126 L404.165,47.199 Z" id="Stroke-22"/>
                <path d="M429.728,44.716 C429.728,48.615 429.87,51.167 431.142,52.65 C432.417,54.068 434.474,54.703 437.023,54.703 C449.275,54.703 453.452,43.795 453.452,34.164 C453.452,21.412 446.73,13.83 433.904,13.83 C431.989,13.83 430.644,14.185 430.228,14.756 C429.794,15.318 429.728,16.666 429.728,18.859 L429.728,44.716 Z M419.591,22.259 C419.591,15.537 419.458,14.185 416.193,13.83 L414.845,13.688 C414.14,13.338 414.14,11.281 414.995,11.212 C420.943,10.862 426.474,10.57 433.974,10.57 C439.78,10.57 445.591,11.14 450.484,12.913 C459.763,16.238 464.861,24.601 464.861,33.451 C464.861,42.949 460.327,50.598 452.177,54.632 C447.362,57.044 441.552,57.968 434.267,57.968 C430.929,57.968 427.388,57.537 424.835,57.537 C421.435,57.537 417.823,57.61 413.786,57.751 C413.218,57.329 413.218,55.622 413.786,55.273 L415.987,54.919 C419.167,54.423 419.591,53.853 419.591,47.338 L419.591,22.259 Z" id="Fill-23" fill="#00446A"/>
                <path d="M429.728,44.716 C429.728,48.615 429.87,51.167 431.142,52.65 C432.417,54.068 434.474,54.703 437.023,54.703 C449.275,54.703 453.452,43.795 453.452,34.164 C453.452,21.412 446.73,13.83 433.904,13.83 C431.989,13.83 430.644,14.185 430.228,14.756 C429.794,15.318 429.728,16.666 429.728,18.859 L429.728,44.716 Z M419.591,22.259 C419.591,15.537 419.458,14.185 416.193,13.83 L414.845,13.688 C414.14,13.338 414.14,11.281 414.995,11.212 C420.943,10.862 426.474,10.57 433.974,10.57 C439.78,10.57 445.591,11.14 450.484,12.913 C459.763,16.238 464.861,24.601 464.861,33.451 C464.861,42.949 460.327,50.598 452.177,54.632 C447.362,57.044 441.552,57.968 434.267,57.968 C430.929,57.968 427.388,57.537 424.835,57.537 C421.435,57.537 417.823,57.61 413.786,57.751 C413.218,57.329 413.218,55.622 413.786,55.273 L415.987,54.919 C419.167,54.423 419.591,53.853 419.591,47.338 L419.591,22.259 Z" id="Stroke-24"/>
                <path d="M483.398,29.204 C483.398,31.187 483.48,31.329 485.392,31.329 L490.279,31.329 C493.956,31.329 494.81,30.832 495.519,27.436 L495.866,25.66 C496.374,25.095 498.144,25.095 498.493,25.736 C498.347,28 498.284,30.55 498.284,33.24 C498.284,35.935 498.347,38.484 498.493,40.751 C498.144,41.386 496.374,41.462 495.866,40.825 L495.519,39.056 C494.81,35.652 493.956,35.081 490.279,35.081 L485.392,35.081 C483.48,35.081 483.398,35.155 483.398,37.28 L483.398,45.708 C483.398,48.964 483.687,51.239 484.538,52.438 C485.464,53.713 486.804,54.284 491.97,54.284 C498.144,54.284 500.546,54.068 504.441,46.064 C505.007,45.284 506.782,45.568 507.068,46.416 C506.782,50.104 505.075,55.843 504.091,57.75 C500.337,57.611 493.53,57.538 487.724,57.538 L478.515,57.538 C475.12,57.538 471.644,57.611 466.335,57.75 C465.767,57.328 465.767,55.625 466.335,55.274 L469.663,54.775 C472.853,54.284 473.275,53.856 473.275,47.335 L473.275,20.917 C473.275,14.471 472.853,14.043 469.663,13.405 L467.89,13.052 C467.253,12.629 467.327,11.005 468.029,10.574 C471.364,10.714 474.835,10.787 478.23,10.787 L493.261,10.787 C497.79,10.787 501.821,10.714 502.741,10.574 C502.818,11.703 503.306,16.805 503.657,21.556 C503.382,22.335 501.745,22.473 501.046,21.846 C500.263,19.358 499.271,17.234 498.347,16.24 C497.003,14.899 494.874,14.043 491.409,14.043 L485.743,14.043 C483.398,14.043 483.398,14.183 483.398,16.805 L483.398,29.204" id="Fill-25" fill="#00446A"/>
                <path d="M483.398,29.204 C483.398,31.187 483.48,31.329 485.392,31.329 L490.279,31.329 C493.956,31.329 494.81,30.832 495.519,27.436 L495.866,25.66 C496.374,25.095 498.144,25.095 498.493,25.736 C498.347,28 498.284,30.55 498.284,33.24 C498.284,35.935 498.347,38.484 498.493,40.751 C498.144,41.386 496.374,41.462 495.866,40.825 L495.519,39.056 C494.81,35.652 493.956,35.081 490.279,35.081 L485.392,35.081 C483.48,35.081 483.398,35.155 483.398,37.28 L483.398,45.708 C483.398,48.964 483.687,51.239 484.538,52.438 C485.464,53.713 486.804,54.284 491.97,54.284 C498.144,54.284 500.546,54.068 504.441,46.064 C505.007,45.284 506.782,45.568 507.068,46.416 C506.782,50.104 505.075,55.843 504.091,57.75 C500.337,57.611 493.53,57.538 487.724,57.538 L478.515,57.538 C475.12,57.538 471.644,57.611 466.335,57.75 C465.767,57.328 465.767,55.625 466.335,55.274 L469.663,54.775 C472.853,54.284 473.275,53.856 473.275,47.335 L473.275,20.917 C473.275,14.471 472.853,14.043 469.663,13.405 L467.89,13.052 C467.253,12.629 467.327,11.005 468.029,10.574 C471.364,10.714 474.835,10.787 478.23,10.787 L493.261,10.787 C497.79,10.787 501.821,10.714 502.741,10.574 C502.818,11.703 503.306,16.805 503.657,21.556 C503.382,22.335 501.745,22.473 501.046,21.846 C500.263,19.358 499.271,17.234 498.347,16.24 C497.003,14.899 494.874,14.043 491.409,14.043 L485.743,14.043 C483.398,14.043 483.398,14.183 483.398,16.805 L483.398,29.204 Z" id="Stroke-26"/>
            </g>
        </g>
    </g>
</svg>
